<svg xmlns="http://www.w3.org/2000/svg" viewBox="0 0 80 44">
  <defs>
    <style>
      .cls-1, .cls-4 {
        fill: none;
      }

      .cls-1 {
        stroke: #fff;
        stroke-width: 1.5px;
      }

      .cls-2 {
        fill: #fff;
      }

      .cls-3 {
        stroke: none;
      }
    </style>
  </defs>
  <g id="buttons_small_purple" data-name="buttons/small/purple" transform="translate(-95 -428)">
    <g id="bg" class="cls-1" transform="translate(95 428)">
      <rect class="cls-3" width="80" height="44" rx="12"/>
      <rect class="cls-4" x="0.75" y="0.75" width="78.5" height="42.5" rx="11.25"/>
    </g>
    <path id="icon" class="cls-2" d="M1597.541-4.4l-5.879-5.88a.749.749,0,0,1-.362-.642.748.748,0,0,1,.1-.378.744.744,0,0,1,.128-.171.751.751,0,0,1,.078-.068l5.932-5.932a.751.751,0,0,1,1.061,0,.751.751,0,0,1,0,1.061l-4.739,4.738h12.688a.75.75,0,0,1,.75.751.75.75,0,0,1-.75.75h-12.66l4.711,4.711a.751.751,0,0,1,0,1.061.749.749,0,0,1-.531.219A.749.749,0,0,1,1597.541-4.4Z" transform="translate(1735.3 439.08) rotate(180)"/>
  </g>
</svg>
